<svg xmlns="http://www.w3.org/2000/svg" version="1.1" xmlns:xlink="http://www.w3.org/1999/xlink" xmlns:svgjs="http://svgjs.dev/svgjs" width="1000" height="1000" viewBox="0 0 1000 1000"><rect width="1000" height="1000" fill="transparent" fill-opacity="0"></rect><g transform="matrix(0.7,0,0,0.7,149.57575757575756,282.1265587044535)"><svg viewBox="0 0 396 247" data-background-color="#ffffff" preserveAspectRatio="xMidYMid meet" height="623" width="1000" xmlns="http://www.w3.org/2000/svg" xmlns:xlink="http://www.w3.org/1999/xlink"><g id="tight-bounds" transform="matrix(1,0,0,1,0.2400000000000091,-0.09999999999999432)"><svg viewBox="0 0 395.52 247.2" height="247.2" width="395.52"><g><svg></svg></g><g><svg viewBox="0 0 395.52 247.2" height="247.2" width="395.52"><g transform="matrix(1,0,0,1,75.54432000000001,66.59131945341615)"><svg viewBox="0 0 244.43135999999996 114.0173610931677" height="114.0173610931677" width="244.43135999999996"><g><svg viewBox="0 0 244.43135999999996 114.0173610931677" height="114.0173610931677" width="244.43135999999996"><g><svg viewBox="0 0 244.43135999999996 114.0173610931677" height="114.0173610931677" width="244.43135999999996"><g><svg viewBox="0 0 244.43135999999996 114.0173610931677" height="114.0173610931677" width="244.43135999999996"><g><svg viewBox="0 0 244.43135999999996 114.0173610931677" height="114.0173610931677" width="244.43135999999996"><g><svg viewBox="0 0 244.43135999999996 114.0173610931677" height="114.0173610931677" width="244.43135999999996"><g transform="matrix(1,0,0,1,0,0)"><svg width="244.43135999999996" viewBox="3.200000047683716 -37.54999923706055 80.5 37.54999923706055" height="114.0173610931677" data-palette-color="#0063db"><path d="M5.85-34.65L11.7-34.65Q12.8-32.75 14.15-30 15.5-27.25 16.9-24.23 18.3-21.2 19.68-18.07 21.05-14.95 22.2-12.3L22.2-12.3Q23.35-14.95 24.7-18.07 26.05-21.2 27.45-24.23 28.85-27.25 30.2-30 31.55-32.75 32.65-34.65L32.65-34.65 38.35-34.65Q38.8-30.85 39.2-26.58 39.6-22.3 39.93-17.82 40.25-13.35 40.53-8.83 40.8-4.3 41 0L41 0 34.8 0Q34.6-6.05 34.33-12.45 34.05-18.85 33.5-24.85L33.5-24.85Q32.95-23.7 32.2-22.1 31.45-20.5 30.6-18.63 29.75-16.75 28.88-14.75 28-12.75 27.18-10.88 26.35-9 25.65-7.38 24.95-5.75 24.45-4.6L24.45-4.6 19.75-4.6Q19.25-5.75 18.55-7.4 17.85-9.05 17.03-10.93 16.2-12.8 15.33-14.8 14.45-16.8 13.6-18.65 12.75-20.5 12-22.13 11.25-23.75 10.7-24.85L10.7-24.85Q10.15-18.85 9.88-12.45 9.6-6.05 9.4 0L9.4 0 3.2 0Q3.4-4.3 3.68-8.9 3.95-13.5 4.28-18.03 4.6-22.55 5-26.8 5.4-31.05 5.85-34.65L5.85-34.65ZM54.15-26.15L54.15 0 48.1 0 48.1-26.15 54.15-26.15ZM54.8-33.8L54.8-33.8Q54.8-32.1 53.7-31.1 52.6-30.1 51.1-30.1L51.1-30.1Q49.55-30.1 48.45-31.1 47.35-32.1 47.35-33.8L47.35-33.8Q47.35-35.55 48.45-36.55 49.55-37.55 51.1-37.55L51.1-37.55Q52.6-37.55 53.7-36.55 54.8-35.55 54.8-33.8ZM61.85 0L61.85-25.3Q63.6-25.8 66.4-26.25 69.2-26.7 72.59-26.7L72.59-26.7Q75.8-26.7 77.95-25.83 80.09-24.95 81.37-23.38 82.65-21.8 83.17-19.58 83.7-17.35 83.7-14.7L83.7-14.7 83.7 0 77.65 0 77.65-13.75Q77.65-15.85 77.37-17.32 77.09-18.8 76.47-19.73 75.84-20.65 74.77-21.08 73.7-21.5 72.15-21.5L72.15-21.5Q71-21.5 69.75-21.35 68.5-21.2 67.9-21.1L67.9-21.1 67.9 0 61.85 0Z" opacity="1" transform="matrix(1,0,0,1,0,0)" fill="#0063db" class="undefined-text-0" data-fill-palette-color="primary" id="text-0"></path></svg></g></svg></g></svg></g></svg></g></svg></g></svg></g></svg></g><g><path d="M0 123.6c0-68.262 55.338-123.6 123.6-123.6 42.072 0 79.235 21.021 101.558 53.133l-6.328 0c-21.582-29.118-56.202-47.992-95.23-47.992-65.423 0-118.459 53.036-118.459 118.459 0 65.423 53.036 118.459 118.459 118.459 39.028 0 73.648-18.874 95.23-47.992l6.328 0c-22.323 32.112-59.486 53.133-101.558 53.133-68.262 0-123.6-55.338-123.6-123.6z" fill="#0063db" stroke="transparent" data-fill-palette-color="tertiary"></path></g></svg></g><defs></defs></svg><rect width="395.52" height="247.2" fill="none" stroke="none" visibility="hidden"></rect></g></svg></g></svg>
